<svg width="132" height="71" viewBox="0 0 132 71" fill="none" xmlns="http://www.w3.org/2000/svg">
<path d="M127.998 70.1535H128.461V67.6368L129.231 70.1535H129.539L130.463 67.6368V70.1535H131.079V67.1649H130.463L129.539 69.6816L128.615 67.1649H127.998V70.1535ZM127.845 67.1649V67.4795H126.92V70.1535H126.458V67.4795H125.534V67.1649H127.845ZM131.079 28.1558C131.079 29.7287 129.847 31.1444 128.153 31.1444C126.458 31.1444 125.226 29.7287 125.226 28.1558V22.0213C125.226 20.4483 126.458 19.0327 128.153 19.0327C129.847 19.0327 131.079 20.291 131.079 22.0213V28.1558ZM115.368 13.842C115.368 12.269 114.136 10.8533 112.441 10.8533C110.901 10.8533 109.515 12.1117 109.515 13.842V27.9985C109.515 29.5714 110.747 30.9871 112.441 30.9871C113.982 30.9871 115.368 29.7287 115.368 27.9985V13.842ZM99.6571 33.8184C99.6571 35.3914 98.4249 36.807 96.7306 36.807C95.0363 36.807 93.8039 35.5486 93.8039 33.8184V2.9886C93.8039 1.41565 95.0363 0 96.7306 0C98.4249 0 99.6571 1.41565 99.6571 2.9886V33.8184ZM84.1001 13.842C84.1001 12.269 82.8679 10.8533 81.1736 10.8533C79.6332 10.8533 78.2469 12.1117 78.2469 13.842V27.9985C78.2469 29.5714 79.4793 30.9871 81.1736 30.9871C82.7138 30.9871 84.1001 29.7287 84.1001 27.9985V13.842ZM68.3892 28.1558C68.3892 29.7287 67.1568 31.1444 65.4625 31.1444C63.9223 31.1444 62.536 29.886 62.536 28.1558V22.0213C62.536 20.4483 63.7681 19.0327 65.4625 19.0327C67.0029 19.0327 68.3892 20.291 68.3892 22.0213V28.1558ZM52.8322 13.842C52.8322 12.269 51.5998 10.8533 49.9055 10.8533C48.3653 10.8533 46.979 12.1117 46.979 13.842V27.9985C46.979 29.5714 48.2112 30.9871 49.9055 30.9871C51.4459 30.9871 52.8322 29.7287 52.8322 27.9985V13.842ZM37.1211 33.8184C37.1211 35.3914 35.8889 36.807 34.1946 36.807C32.5003 36.807 31.2681 35.5486 31.2681 33.8184V2.9886C31.2681 1.41565 32.5003 0 34.1946 0C35.8889 0 37.1211 1.41565 37.1211 2.9886V33.8184ZM21.5641 13.842C21.5641 12.269 20.1778 10.8533 18.6376 10.8533C17.0972 10.8533 15.7111 12.1117 15.7111 13.842V27.9985C15.7111 29.5714 16.9433 30.9871 18.6376 30.9871C20.3319 30.9871 21.5641 29.7287 21.5641 27.9985V13.842ZM5.85321 28.1558C5.85321 29.7287 4.6208 31.1444 2.92647 31.1444C1.23215 31.1444 0 29.7287 0 28.1558V22.0213C0 20.4483 1.23215 19.0327 2.92647 19.0327C4.6208 19.0327 5.85321 20.291 5.85321 22.0213V28.1558ZM64.6925 52.2219C64.5384 52.2219 62.228 51.5927 60.2256 51.5927C57.9152 51.5927 56.6828 52.3792 56.6828 53.6376C56.6828 55.0532 58.2232 55.6824 59.3015 55.8397L60.8417 56.3116C64.5384 57.4126 66.3868 60.0867 66.3868 62.918C66.3868 68.7379 61.3039 70.6254 56.9908 70.6254C53.9102 70.6254 50.9837 70.1535 50.8299 69.9962V64.6482C51.2918 64.8055 53.7563 65.4347 56.3748 65.4347C59.3015 65.4347 60.5336 64.6482 60.5336 63.2326C60.5336 62.1315 59.4554 61.345 57.9152 60.8731C57.6072 60.7158 57.145 60.5585 56.6828 60.5585C53.4483 59.6148 50.8299 57.5699 50.8299 53.7949C50.8299 49.5479 54.0644 46.5593 59.3015 46.5593C62.0738 46.5593 64.8464 47.1885 65.0006 47.1885V52.0646H64.6925V52.2219ZM107.359 52.5365C103.97 52.5365 101.351 55.3678 101.351 58.671C101.351 61.9742 103.97 64.8055 107.359 64.8055C110.747 64.8055 113.366 61.9742 113.366 58.671C113.366 55.2105 110.747 52.5365 107.359 52.5365ZM119.219 58.671C119.219 65.2774 114.136 70.7827 107.205 70.7827C100.273 70.7827 95.1902 65.2774 95.1902 58.671C95.1902 52.0646 100.273 46.5593 107.205 46.5593C114.136 46.5593 119.219 52.0646 119.219 58.671ZM29.2655 53.6376C29.1116 53.4803 27.1093 52.3792 24.4908 52.3792C20.7941 52.3792 18.1754 55.0532 18.1754 58.671C18.1754 62.1315 20.64 64.9628 24.4908 64.9628C27.2631 64.9628 28.9575 63.8617 29.2655 63.8617V70.1535C28.6494 70.3108 26.4932 70.94 24.0286 70.94C17.5594 70.94 11.8603 66.3785 11.8603 58.8283C11.8603 51.9073 17.0972 46.7166 24.0286 46.7166C26.8012 46.7166 28.6494 47.3458 29.2655 47.5031V53.6376ZM89.1831 47.3458C88.7209 47.1885 86.5646 46.5593 83.9462 46.5593C77.0147 46.5593 71.7779 51.75 71.7779 58.671C71.7779 66.0639 77.4769 70.7827 83.9462 70.7827C86.5646 70.7827 88.4129 70.1535 89.1831 69.9962V63.7044C88.875 63.8617 87.0266 64.8055 84.4081 64.8055C80.5576 64.8055 78.093 61.9742 78.093 58.5137C78.093 54.8959 80.7114 52.2219 84.4081 52.2219C87.1807 52.2219 88.875 53.323 89.1831 53.4803V47.3458ZM42.8201 70.1535H36.9672V46.8739H42.8201V70.1535Z" fill="white"/>
</svg>
