<svg width="271" height="31" viewBox="0 0 271 31" fill="none" xmlns="http://www.w3.org/2000/svg">
<g clip-path="url(#clip0)">
<path d="M254.029 20.3268L261.684 31H271V30.4561L259.415 13.8344L270.492 0.577849V-1.53482e-06H261.583L250.031 13.7325V-1.53482e-06H241.766V31H250.031V25.1195L254.029 20.3268ZM219.747 15.9079V7.10417H224.422C227.877 7.10417 229.774 8.73574 229.774 11.591C229.774 14.3443 227.843 15.9079 224.422 15.9079H219.747ZM238.954 30.3542L232.044 20.9726C235.838 19.307 237.904 16.0779 237.904 11.557C237.904 4.14693 232.992 -0.0339928 224.286 -0.0339928H211.482V30.966H219.747V22.3662H223.948L230.113 31H238.92V30.3542H238.954ZM195.425 18.5592H187.464L190.547 9.65351C190.886 8.5318 191.19 7.61403 191.461 6.79824C191.665 7.61403 191.97 8.5318 192.308 9.65351L195.425 18.5592ZM184.89 26.0713H198.067L199.795 31H208.602L197.119 -1.53482e-06H185.872L174.321 31H183.196L184.89 26.0713ZM158.603 16.8596V7.10417H162.668C166.258 7.10417 168.291 8.87171 168.291 12.0329C168.291 15.1261 166.428 16.8596 163.04 16.8596H158.603ZM150.371 -1.53482e-06V31H158.637V23.8958H163.108C171.577 23.8958 176.319 19.6129 176.319 12.0669C176.319 4.35088 171.441 0.0339897 162.735 0.0339897H150.371V-1.53482e-06Z" fill="#00396B"/>
<path d="M134.314 18.5592H126.354L129.436 9.65351C129.775 8.5318 130.08 7.61404 130.351 6.79825C130.554 7.61404 130.859 8.5318 131.198 9.65351L134.314 18.5592ZM123.779 26.0713H136.957L138.684 31H147.492L135.974 0H124.728L113.176 31H122.052L123.779 26.0713ZM110.365 31V0H102.099V31H110.365ZM78.0819 23.7259V7.27412H80.758C87.1942 7.27412 90.0736 9.92544 90.0736 15.568C90.0736 21.1425 86.9232 23.7599 80.758 23.7599H78.0819V23.7259ZM69.8502 0V31H80.7919C91.7674 31 98.4746 24.8476 98.4746 15.534C98.4746 6.1864 92.0384 0 80.7919 0H69.8502ZM65.6836 31V23.6239H50.7447V19.307H63.143V12.2029H50.7447V7.51206H65.2771V0H42.4792V31H65.6836ZM28.455 31H36.7544L35.5687 0H26.3209L19.1394 16.8596C18.8006 17.7774 18.5296 18.6272 18.3941 19.205C18.2586 18.6612 17.9876 17.7774 17.6489 16.8596L10.4335 0H1.2195L0 31H8.29937L8.70587 14.4463V13.2226L15.8874 31H20.867L28.1162 13.2226V14.6502L28.455 31Z" fill="#EC1C24"/>
</g>
<defs>
<clipPath id="clip0">
<rect width="271" height="31" fill="white"/>
</clipPath>
</defs>
</svg>
