<svg width="228" height="43" viewBox="0 0 228 43" fill="none" xmlns="http://www.w3.org/2000/svg">
<g clip-path="url(#clip0)">
<path d="M0 25.51V25.39C0 16.2124 7.38596 8.77246 17.3338 8.77246C27.2219 8.77246 34.5479 16.0984 34.5479 25.2723V25.3923C34.5479 34.5651 27.1618 42.011 17.2139 42.011C7.32596 42.0123 0 34.6827 0 25.51ZM25.6127 25.51V25.39C25.6572 24.2552 25.4734 23.1233 25.0724 22.0609C24.6712 20.9985 24.0609 20.0275 23.2775 19.2053C22.4941 18.3832 21.5537 17.7268 20.512 17.2749C19.4702 16.8232 18.3482 16.5851 17.2127 16.5749C12.0311 16.5749 8.93275 20.566 8.93275 25.2712V25.3911C8.88822 26.5259 9.07195 27.658 9.47306 28.7202C9.87418 29.7826 10.4845 30.7537 11.2679 31.5758C12.0512 32.3979 12.9917 33.0543 14.0335 33.5062C15.0753 33.9581 16.1972 34.196 17.3327 34.2063C22.5154 34.2123 25.6127 30.2163 25.6127 25.51Z" fill="#EB1537"/>
<path d="M38.5044 4.26889C38.5722 3.11422 39.0786 2.02911 39.9202 1.23555C40.7617 0.441997 41.8747 0 43.0314 0C44.188 0 45.301 0.441997 46.1426 1.23555C46.984 2.02911 47.4905 3.11422 47.5584 4.26889V37.3299C47.4905 38.4846 46.984 39.5697 46.1426 40.3633C45.301 41.1569 44.188 41.5989 43.0314 41.5989C41.8747 41.5989 40.7617 41.1569 39.9202 40.3633C39.0786 39.5697 38.5722 38.4846 38.5044 37.3299V4.26889Z" fill="#EB1537"/>
<path d="M51.5329 25.51V25.39C51.502 23.1891 51.9148 21.0045 52.7465 18.9665C53.5783 16.9286 54.812 15.0791 56.3741 13.5282C57.936 11.9774 59.7945 10.7571 61.8383 9.94C63.8822 9.12291 66.0696 8.72582 68.2703 8.77245C72.221 8.57333 76.105 9.84668 79.171 12.3461C79.6222 12.7257 79.9841 13.2 80.2311 13.7353C80.4781 14.2706 80.6041 14.8538 80.6003 15.4432C80.598 15.9794 80.4897 16.51 80.2815 17.0043C80.0734 17.4984 79.7696 17.9467 79.3876 18.323C79.0056 18.6994 78.5531 18.9965 78.0557 19.1974C77.5585 19.3983 77.0265 19.4988 76.4903 19.4933C75.5416 19.4953 74.6192 19.1806 73.8695 18.5992C72.2876 17.2676 70.2803 16.5484 68.2127 16.5724C63.6863 16.5724 60.4692 20.5635 60.4692 25.2688V25.3888C60.4692 30.2727 63.6264 34.2039 68.5703 34.2039C70.7551 34.2019 72.8674 33.4202 74.5271 31.9995C75.2339 31.473 76.0879 31.1813 76.9691 31.1655C77.7482 31.1707 78.5075 31.4128 79.1458 31.8598C79.7842 32.3066 80.2714 32.9371 80.543 33.6674C80.8144 34.3979 80.8574 35.1935 80.6659 35.9489C80.4745 36.7042 80.0578 37.3834 79.4711 37.8964C77.9479 39.2921 76.1641 40.3737 74.222 41.079C72.28 41.7842 70.2179 42.0993 68.1539 42.0062C65.97 42.0492 63.7996 41.6528 61.7718 40.8405C59.7441 40.0283 57.9002 38.8168 56.3498 37.2781C54.7994 35.7393 53.574 33.9046 52.7465 31.883C51.9191 29.8614 51.5063 27.6941 51.5329 25.51Z" fill="#EB1537"/>
<path d="M85.2727 4.26889C85.3405 3.11422 85.8469 2.02911 86.6884 1.23555C87.53 0.441997 88.643 0 89.7996 0C90.9563 0 92.0692 0.441997 92.9108 1.23555C93.7522 2.02911 94.2588 3.11422 94.3266 4.26889V15.4768C96.4109 12.9568 99.0918 10.6577 103.678 10.6577C110.528 10.6577 114.519 14.9165 114.519 21.8104V37.3299C114.451 38.4846 113.944 39.5697 113.103 40.3633C112.262 41.1569 111.149 41.5989 109.992 41.5989C108.835 41.5989 107.722 41.1569 106.881 40.3633C106.039 39.5697 105.533 38.4846 105.465 37.3299V24.5008C105.465 20.4652 103.439 18.3917 99.9845 18.3917C96.5297 18.3917 94.3254 20.4652 94.3254 24.5008V37.3299C94.2576 38.4846 93.751 39.5697 92.9095 40.3633C92.0681 41.1569 90.9551 41.5989 89.7984 41.5989C88.6418 41.5989 87.5287 41.1569 86.6873 40.3633C85.8457 39.5697 85.3392 38.4846 85.2715 37.3299L85.2727 4.26889Z" fill="#EB1537"/>
<path d="M118.656 32.122V32.002C118.656 25.0323 123.958 21.8164 131.523 21.8164C134.179 21.793 136.819 22.2366 139.323 23.1268V22.5904C139.323 18.8381 136.999 16.7524 132.473 16.7524C130.355 16.7296 128.246 17.031 126.219 17.6465C125.799 17.8024 125.356 17.8837 124.908 17.8864C124.418 17.8952 123.931 17.8061 123.476 17.6242C123.02 17.4426 122.606 17.1718 122.256 16.8277C121.907 16.4838 121.63 16.0737 121.441 15.6212C121.252 15.1687 121.155 14.6832 121.156 14.1928C121.156 13.428 121.39 12.6814 121.827 12.0533C122.263 11.4251 122.881 10.9453 123.598 10.678C126.859 9.49099 130.314 8.92526 133.783 9.01006C138.727 9.01006 142.303 10.3204 144.564 12.5836C146.947 14.9669 148.019 18.4804 148.019 22.7691V37.3036C148.019 37.8791 147.905 38.449 147.682 38.9801C147.46 39.5112 147.136 39.9929 146.727 40.3973C146.316 40.8017 145.831 41.1209 145.297 41.3361C144.763 41.5514 144.192 41.6584 143.616 41.651C143.084 41.6912 142.549 41.6261 142.042 41.459C141.535 41.2921 141.066 41.0267 140.662 40.6781C140.258 40.3294 139.927 39.9044 139.688 39.4275C139.448 38.9506 139.306 38.431 139.267 37.8987V37.8386C138.057 39.1829 136.564 40.2431 134.896 40.9434C133.228 41.6434 131.426 41.9663 129.618 41.8887C123.6 41.891 118.656 38.4362 118.656 32.122ZM139.445 30.0375V28.4295C137.625 27.6276 135.656 27.2214 133.667 27.2379C129.796 27.2379 127.413 28.7872 127.413 31.6455V31.7655C127.413 34.2074 129.438 35.6367 132.357 35.6367C136.585 35.6367 139.445 33.3136 139.445 30.0375Z" fill="#EB1537"/>
<path d="M157.294 31.408C157.97 31.3852 158.644 31.4998 159.276 31.7446C159.907 31.9896 160.481 32.3596 160.967 32.8327C161.45 33.3058 161.833 33.872 162.094 34.4973C162.352 35.1225 162.482 35.7938 162.476 36.4708V36.5908C162.44 37.9415 161.879 39.2249 160.911 40.1677C159.942 41.1106 158.644 41.638 157.294 41.638C155.942 41.638 154.644 41.1106 153.676 40.1677C152.709 39.2249 152.146 37.9415 152.111 36.5908V36.4708C152.104 35.7938 152.234 35.1224 152.494 34.497C152.753 33.8717 153.137 33.3054 153.621 32.8323C154.106 32.3592 154.681 31.9891 155.312 31.7443C155.943 31.4995 156.617 31.3851 157.294 31.408Z" fill="#EB1537"/>
<path d="M195.835 37.1258C195.835 38.3265 195.357 39.478 194.509 40.3269C193.66 41.1759 192.508 41.6528 191.307 41.6528C190.107 41.6528 188.955 41.1759 188.106 40.3269C187.257 39.478 186.78 38.3265 186.78 37.1258V36.7658C184.696 39.4467 182.016 41.8887 177.43 41.8887C170.579 41.8887 166.588 37.3623 166.588 30.0352V13.5352C166.588 12.3346 167.066 11.1831 167.913 10.3342C168.763 9.48521 169.914 9.00828 171.116 9.00828C172.316 9.00828 173.467 9.48521 174.316 10.3342C175.166 11.1831 175.642 12.3346 175.642 13.5352V27.1792C175.642 31.4679 177.668 33.671 181.123 33.671C184.578 33.671 186.782 31.4668 186.782 27.1792V13.5376C186.782 12.337 187.258 11.1856 188.108 10.3366C188.957 9.48762 190.108 9.01066 191.308 9.01066C192.51 9.01066 193.661 9.48762 194.509 10.3366C195.358 11.1856 195.836 12.337 195.836 13.5376L195.835 37.1258Z" fill="#EB1537"/>
<path d="M199.526 37.6622V37.4835C199.535 36.6478 199.721 35.8232 200.069 35.0638C200.418 34.3042 200.924 33.6269 201.552 33.0759L216.384 16.696H203.755C203.274 16.7003 202.797 16.6097 202.35 16.4293C201.904 16.2489 201.498 15.9824 201.155 15.6449C200.813 15.3074 200.539 14.9056 200.351 14.4626C200.164 14.0194 200.066 13.5436 200.061 13.0624C200.067 12.0843 200.457 11.1476 201.149 10.4559C201.84 9.76425 202.777 9.37358 203.755 9.36884H223.591C226.151 9.36884 227.997 10.8581 227.997 13.0024V13.1812C227.988 14.017 227.804 14.8416 227.455 15.601C227.106 16.3606 226.6 17.0379 225.971 17.5887L211.083 33.9688H224.307C225.284 33.9735 226.221 34.3641 226.913 35.0557C227.604 35.7475 227.996 36.6842 228 37.6622C227.996 38.1435 227.898 38.6192 227.711 39.0624C227.522 39.5055 227.249 39.9073 226.907 40.2448C226.563 40.5822 226.157 40.8488 225.711 41.0292C225.265 41.2095 224.788 41.3001 224.307 41.2959H203.934C201.374 41.2959 199.526 39.8067 199.526 37.6622Z" fill="#EB1537"/>
</g>
<defs>
<clipPath id="clip0">
<rect width="228" height="42.3846" fill="white"/>
</clipPath>
</defs>
</svg>
