<svg width="69" height="69" viewBox="0 0 69 69" fill="none" xmlns="http://www.w3.org/2000/svg">
<path d="M42.4582 17.5833C47.0375 17.5833 50.7498 13.871 50.7498 9.29166C50.7498 4.7123 47.0375 1 42.4582 1C37.8788 1 34.1665 4.7123 34.1665 9.29166C34.1665 13.871 37.8788 17.5833 42.4582 17.5833Z" stroke="#7598FF" stroke-width="2" stroke-linecap="round" stroke-linejoin="round"/>
<path d="M1 9.29184H34.1667" stroke="#7598FF" stroke-width="2" stroke-linecap="round" stroke-linejoin="round"/>
<path d="M50.75 9.29184H67.3333" stroke="#7598FF" stroke-width="2" stroke-linecap="round" stroke-linejoin="round"/>
<path d="M17.5832 42.4583C22.1625 42.4583 25.8748 38.746 25.8748 34.1667C25.8748 29.5873 22.1625 25.875 17.5832 25.875C13.0038 25.875 9.2915 29.5873 9.2915 34.1667C9.2915 38.746 13.0038 42.4583 17.5832 42.4583Z" stroke="#7598FF" stroke-width="2" stroke-linecap="round" stroke-linejoin="round"/>
<path d="M1 34.1668H9.29166" stroke="#7598FF" stroke-width="2" stroke-linecap="round" stroke-linejoin="round"/>
<path d="M25.875 34.1668H67.3333" stroke="#7598FF" stroke-width="2" stroke-linecap="round" stroke-linejoin="round"/>
<path d="M54.8957 67.3333C59.475 67.3333 63.1873 63.621 63.1873 59.0417C63.1873 54.4623 59.475 50.75 54.8957 50.75C50.3163 50.75 46.604 54.4623 46.604 59.0417C46.604 63.621 50.3163 67.3333 54.8957 67.3333Z" stroke="#7598FF" stroke-width="2" stroke-linecap="round" stroke-linejoin="round"/>
<path d="M1 59.0418H46.6042" stroke="#7598FF" stroke-width="2" stroke-linecap="round" stroke-linejoin="round"/>
<path d="M63.1875 59.0418H67.3333" stroke="#7598FF" stroke-width="2" stroke-linecap="round" stroke-linejoin="round"/>
</svg>
