<svg width="77" height="77" viewBox="0 0 77 77" fill="none" xmlns="http://www.w3.org/2000/svg">
<path d="M25.9464 38.5L34.2797 46.8333L50.9464 30.1666" stroke="#7598FF" stroke-width="2" stroke-linecap="round" stroke-linejoin="round"/>
<path d="M38.4464 1C48.179 9.61073 60.8817 14.094 73.8631 13.5C75.753 19.9292 76.3313 26.6728 75.5636 33.3299C74.7959 39.9871 72.6977 46.422 69.3939 52.2522C66.0901 58.0825 61.648 63.1891 56.3316 67.2687C51.0152 71.3482 44.933 74.3175 38.4464 76C31.9598 74.3175 25.8776 71.3482 20.5612 67.2687C15.2448 63.1891 10.8027 58.0825 7.49889 52.2522C4.19509 46.422 2.09697 39.9871 1.32923 33.3299C0.561483 26.6728 1.13978 19.9292 3.02975 13.5C16.0111 14.094 28.7138 9.61073 38.4464 1" stroke="#7598FF" stroke-width="2" stroke-linecap="round" stroke-linejoin="round"/>
</svg>
