<svg width="50" height="50" viewBox="0 0 50 50" fill="none" xmlns="http://www.w3.org/2000/svg">
<circle r="24.5" transform="matrix(4.37114e-08 -1 -1 -4.37114e-08 25 25)" stroke="#9EB7FF"/>
<path d="M16.1329 25.7071C15.7424 25.3166 15.7424 24.6834 16.1329 24.2929L22.4969 17.9289C22.8874 17.5384 23.5205 17.5384 23.9111 17.9289C24.3016 18.3195 24.3016 18.9526 23.9111 19.3431L18.2542 25L23.9111 30.6569C24.3016 31.0474 24.3016 31.6805 23.9111 32.0711C23.5205 32.4616 22.8874 32.4616 22.4969 32.0711L16.1329 25.7071ZM34 26L16.84 26L16.84 24L34 24L34 26Z" fill="#9EB7FF"/>
</svg>
